<?xml version="1.0" encoding="utf-8"?>
<svg xmlns="http://www.w3.org/2000/svg" viewBox="58.785 46.1985 389.7421 378.3573" width="389.742px" height="378.357px" preserveAspectRatio="none"><g id="object-4" transform="matrix(1, 0, 0, 1, 2.842170943040401e-14, 0)"><g id="object-3"><path fill="#F9F7F4" d="M 219.992 46.781 L 302.278 46.764 C 322.333 46.799 353.277 45.517 371.982 50.302 C 389.495 54.611 405.489 63.596 418.218 76.277 C 451.115 108.559 448.227 141.093 448.367 182.914 L 448.394 271.908 C 448.377 284.788 447.608 301.963 448.34 314.462 C 451.855 374.66 405.425 425.2 343.999 424.312 C 326.384 424.059 307.726 424.33 290.084 424.292 L 203.276 424.376 C 184.396 424.399 154.607 425.608 137.345 421.434 C 119.751 417.29 103.607 408.502 90.647 396.001 C 69.221 375.53 58.973 349.218 59.259 320.007 C 59.97 285.008 58.14 248.381 59.212 213.584 C 60.794 162.236 49.074 115.493 89.526 75.63 C 126.318 39.374 172.905 46.874 219.992 46.781 Z" style="stroke-width: 0.494;" id="object-0"/></g><path fill="#024D44" d="M 234.006 141.188 C 274.328 141.04 310.3 135.443 340.735 166.711 C 374.507 201.396 374.178 263.847 337.784 296.653 C 312.969 319.021 289.669 318.452 258.179 318.486 C 243.263 318.634 228.336 318.528 213.431 318.168 C 201.642 326.282 187.674 334.297 175.268 341.742 C 176.884 332.3 178.172 321.506 179.508 311.937 C 181.651 312.918 188.559 316.092 190.42 315.774 C 200.957 313.979 221.559 287.318 230.602 279.251 L 231.466 278.502 C 261.976 277.216 263.293 283.643 285.815 258.952 C 289.114 255.486 293.4 251.207 295.599 247.112 C 301.201 236.672 297.385 218.102 293.249 207.308 C 283.023 219.016 271.978 230.814 261.47 242.346 C 239.793 237.073 241.421 243.717 237.576 218.617 C 246.789 207.429 256.065 196.303 265.426 185.235 C 237.829 182.041 235.414 181.238 217.367 199.707 C 193.852 223.781 199.734 229.158 206.748 258.843 C 198.043 269.61 181.235 285.628 170.935 295.885 C 117.987 244.797 139.052 151.071 217.727 141.516 C 222.698 140.912 228.918 141.176 234.006 141.188 Z" style="stroke-width: 0.494;" id="object-1"/></g></svg>