<?xml version="1.0" encoding="utf-8"?>
<svg xmlns="http://www.w3.org/2000/svg" viewBox="583.3285 301.5177 210.2508 207.0456" width="210.251px" height="207.046px" preserveAspectRatio="none"><g transform="matrix(1, 0, 0, 1, 92.12351364081371, -178.39790610071867)" id="object-2"><path fill="#024D44" d="M 541.945 480.072 C 548.78 479.762 557.55 480.007 564.505 480.017 L 605.495 480.012 L 633.46 479.977 C 640.63 479.967 648.33 479.632 655.38 480.802 C 678.015 484.557 696.235 503.462 700.335 525.872 C 701.775 533.747 701.42 542.712 701.41 550.707 L 701.395 582.412 L 701.41 615.537 C 701.405 622.727 701.625 633.027 700.49 639.937 C 699.185 648.127 696.025 655.912 691.245 662.692 C 681.375 676.742 668.64 683.422 652.13 686.307 C 621 687.982 588.555 685.802 557.3 686.712 C 539.81 687.222 526.47 686.107 512.4 674.617 C 491.35 657.432 491.245 640.012 491.215 615.177 L 491.205 582.017 L 491.22 549.187 C 491.235 541.647 490.99 531.162 492.42 523.972 C 494.255 515.002 498.25 506.617 504.06 499.542 C 513.48 488.157 527.315 481.397 541.945 480.072 Z" style="stroke-width: 0.5;"/><path fill="#F9F7F4" d="M 576.175 533.002 C 577.48 532.887 578.785 532.817 580.095 532.787 C 583.045 532.732 586.03 532.762 588.97 532.742 C 608.87 532.627 626.32 530.622 641.855 545.622 C 660.38 563.512 660.845 596.822 642.65 615.007 C 629.285 628.362 616.87 628.062 599.4 628.087 L 573.005 628.102 C 567.94 631.822 558.89 636.737 553.3 639.977 C 554.175 635.272 554.76 629.197 555.355 624.362 C 557.85 625.417 562.565 627.607 565.06 625.397 C 571.955 619.297 577.54 611.782 584.095 605.237 L 590.875 605.142 C 599.275 604.982 603.06 605.182 609.02 598.997 C 621.32 585.672 621.585 583.932 617.36 565.897 C 611.48 571.987 606.115 579.002 600.06 585.172 C 595.96 584.357 593.865 584.062 589.695 583.762 C 588.875 580.227 588.195 576.572 587.495 573.002 C 591.81 567.447 598.005 560.142 602.635 554.942 C 584.395 552.427 581.755 555.642 570.565 569.897 C 565.12 576.832 569.445 587.022 571.025 595.122 L 551.515 615.837 C 544.495 608.882 539.05 600.437 537.34 590.527 C 532.465 562.347 546.83 537.787 576.175 533.002 Z" style="stroke-width: 0.5;"/></g></svg>